<mxfile host="app.diagrams.net" agent="Mozilla/5.0 (Windows NT 10.0; Win64; x64) AppleWebKit/537.36 (KHTML, like Gecko) Chrome/139.0.0.0 Safari/537.36" version="28.1.0">
  <diagram name="Page-1" id="5GOIrDCzwpzFs5iAlv_V">
    <mxGraphModel dx="12907" dy="9353" grid="1" gridSize="10" guides="1" tooltips="1" connect="1" arrows="1" fold="1" page="1" pageScale="1" pageWidth="850" pageHeight="1100" math="0" shadow="0">
      <root>
        <mxCell id="0" />
        <mxCell id="1" parent="0" />
        <mxCell id="3DPxSHLYKBOaZ5h03i6D-379" value="" style="group;strokeWidth=0;" parent="1" vertex="1" connectable="0">
          <mxGeometry x="-2835.5" y="-3441" width="6000" height="6400" as="geometry" />
        </mxCell>
        <mxCell id="3DPxSHLYKBOaZ5h03i6D-291" value="" style="rounded=0;whiteSpace=wrap;html=1;fillColor=#000000;strokeWidth=0;fillStyle=auto;" parent="3DPxSHLYKBOaZ5h03i6D-379" vertex="1">
          <mxGeometry width="6000" height="6400" as="geometry" />
        </mxCell>
        <mxCell id="3DPxSHLYKBOaZ5h03i6D-3" value="" style="rounded=0;whiteSpace=wrap;html=1;strokeColor=default;strokeWidth=0;perimeterSpacing=1;shadow=0;" parent="3DPxSHLYKBOaZ5h03i6D-379" vertex="1">
          <mxGeometry x="3335.5" y="3961" width="450" height="40" as="geometry" />
        </mxCell>
        <mxCell id="3DPxSHLYKBOaZ5h03i6D-4" value="" style="rounded=0;whiteSpace=wrap;html=1;strokeColor=default;strokeWidth=0;perimeterSpacing=1;shadow=0;" parent="3DPxSHLYKBOaZ5h03i6D-379" vertex="1">
          <mxGeometry x="3335.5" y="4001" width="20" height="1670" as="geometry" />
        </mxCell>
        <mxCell id="3DPxSHLYKBOaZ5h03i6D-5" value="" style="rounded=0;whiteSpace=wrap;html=1;strokeColor=default;strokeWidth=0;perimeterSpacing=1;shadow=0;" parent="3DPxSHLYKBOaZ5h03i6D-379" vertex="1">
          <mxGeometry x="2905.5" y="2721" width="450" height="40" as="geometry" />
        </mxCell>
        <mxCell id="3DPxSHLYKBOaZ5h03i6D-6" value="" style="rounded=0;whiteSpace=wrap;html=1;strokeColor=default;strokeWidth=0;perimeterSpacing=1;shadow=0;" parent="3DPxSHLYKBOaZ5h03i6D-379" vertex="1">
          <mxGeometry x="3335.5" y="1061" width="20" height="1660" as="geometry" />
        </mxCell>
        <mxCell id="3DPxSHLYKBOaZ5h03i6D-14" value="" style="rounded=0;whiteSpace=wrap;html=1;strokeColor=default;strokeWidth=0;perimeterSpacing=1;shadow=0;" parent="3DPxSHLYKBOaZ5h03i6D-379" vertex="1">
          <mxGeometry x="3945.5" y="2921" width="40" height="450" as="geometry" />
        </mxCell>
        <mxCell id="3DPxSHLYKBOaZ5h03i6D-15" value="" style="rounded=0;whiteSpace=wrap;html=1;strokeColor=default;strokeWidth=0;perimeterSpacing=1;shadow=0;" parent="3DPxSHLYKBOaZ5h03i6D-379" vertex="1">
          <mxGeometry x="3985.5" y="3351" width="820" height="20" as="geometry" />
        </mxCell>
        <mxCell id="3DPxSHLYKBOaZ5h03i6D-19" value="" style="rounded=0;whiteSpace=wrap;html=1;strokeColor=default;strokeWidth=0;perimeterSpacing=1;shadow=0;" parent="3DPxSHLYKBOaZ5h03i6D-379" vertex="1">
          <mxGeometry x="3705.5" y="1891" width="20" height="600" as="geometry" />
        </mxCell>
        <mxCell id="3DPxSHLYKBOaZ5h03i6D-23" value="" style="rounded=0;whiteSpace=wrap;html=1;strokeColor=default;strokeWidth=0;perimeterSpacing=1;shadow=0;" parent="3DPxSHLYKBOaZ5h03i6D-379" vertex="1">
          <mxGeometry x="3705.5" y="4231" width="20" height="600" as="geometry" />
        </mxCell>
        <mxCell id="3DPxSHLYKBOaZ5h03i6D-24" value="" style="rounded=0;whiteSpace=wrap;html=1;strokeColor=default;strokeWidth=0;perimeterSpacing=1;shadow=0;" parent="3DPxSHLYKBOaZ5h03i6D-379" vertex="1">
          <mxGeometry x="2965.5" y="4231" width="20" height="600" as="geometry" />
        </mxCell>
        <mxCell id="3DPxSHLYKBOaZ5h03i6D-27" value="" style="rounded=0;whiteSpace=wrap;html=1;strokeColor=default;strokeWidth=0;perimeterSpacing=1;shadow=0;" parent="3DPxSHLYKBOaZ5h03i6D-379" vertex="1">
          <mxGeometry x="4215.5" y="2981" width="600" height="20" as="geometry" />
        </mxCell>
        <mxCell id="3DPxSHLYKBOaZ5h03i6D-28" value="" style="rounded=0;whiteSpace=wrap;html=1;strokeColor=default;strokeWidth=0;perimeterSpacing=1;shadow=0;" parent="3DPxSHLYKBOaZ5h03i6D-379" vertex="1">
          <mxGeometry x="4215.5" y="3721" width="600" height="20" as="geometry" />
        </mxCell>
        <mxCell id="3DPxSHLYKBOaZ5h03i6D-32" value="" style="rounded=0;whiteSpace=wrap;html=1;strokeColor=default;strokeWidth=0;perimeterSpacing=1;shadow=0;" parent="3DPxSHLYKBOaZ5h03i6D-379" vertex="1">
          <mxGeometry x="1875.5" y="3721" width="600" height="20" as="geometry" />
        </mxCell>
        <mxCell id="3DPxSHLYKBOaZ5h03i6D-20" value="" style="rounded=0;whiteSpace=wrap;html=1;strokeWidth=0;strokeColor=default;perimeterSpacing=1;shadow=0;" parent="3DPxSHLYKBOaZ5h03i6D-379" vertex="1">
          <mxGeometry x="2965.5" y="1891" width="20" height="600" as="geometry" />
        </mxCell>
        <mxCell id="3DPxSHLYKBOaZ5h03i6D-31" value="" style="rounded=0;whiteSpace=wrap;html=1;strokeColor=default;strokeWidth=0;perimeterSpacing=1;shadow=0;" parent="3DPxSHLYKBOaZ5h03i6D-379" vertex="1">
          <mxGeometry x="1875.5" y="2981" width="600" height="20" as="geometry" />
        </mxCell>
        <mxCell id="3DPxSHLYKBOaZ5h03i6D-37" value="" style="verticalLabelPosition=bottom;verticalAlign=top;html=1;shape=mxgraph.basic.partConcEllipse;startAngle=0.5;endAngle=0.7515914963824541;arcWidth=0.04;rotation=-90;strokeWidth=0;strokeColor=default;perimeterSpacing=1;shadow=0;" parent="3DPxSHLYKBOaZ5h03i6D-379" vertex="1">
          <mxGeometry x="1950.5" y="1966" width="1035" height="1035" as="geometry" />
        </mxCell>
        <mxCell id="3DPxSHLYKBOaZ5h03i6D-39" value="" style="verticalLabelPosition=bottom;verticalAlign=top;html=1;shape=mxgraph.basic.partConcEllipse;startAngle=0.5;endAngle=0.7515914963824541;arcWidth=0.04;rotation=-180;strokeColor=default;strokeWidth=0;perimeterSpacing=1;shadow=0;" parent="3DPxSHLYKBOaZ5h03i6D-379" vertex="1">
          <mxGeometry x="1950.5" y="3721" width="1035" height="1035" as="geometry" />
        </mxCell>
        <mxCell id="3DPxSHLYKBOaZ5h03i6D-40" value="" style="verticalLabelPosition=bottom;verticalAlign=top;html=1;shape=mxgraph.basic.partConcEllipse;startAngle=0.5;endAngle=0.7515914963824541;arcWidth=0.04;rotation=90;strokeColor=default;strokeWidth=0;perimeterSpacing=1;shadow=0;" parent="3DPxSHLYKBOaZ5h03i6D-379" vertex="1">
          <mxGeometry x="3705.5" y="3721.5" width="1035" height="1035" as="geometry" />
        </mxCell>
        <mxCell id="3DPxSHLYKBOaZ5h03i6D-41" value="" style="verticalLabelPosition=bottom;verticalAlign=top;html=1;shape=mxgraph.basic.partConcEllipse;startAngle=0.5;endAngle=0.7515914963824541;arcWidth=0.04;rotation=0;strokeColor=default;strokeWidth=0;perimeterSpacing=1;shadow=0;" parent="3DPxSHLYKBOaZ5h03i6D-379" vertex="1">
          <mxGeometry x="3705.5" y="1966.5" width="1035" height="1035" as="geometry" />
        </mxCell>
        <mxCell id="3DPxSHLYKBOaZ5h03i6D-43" value="" style="rounded=0;whiteSpace=wrap;html=1;strokeColor=default;strokeWidth=0;perimeterSpacing=1;shadow=0;" parent="3DPxSHLYKBOaZ5h03i6D-379" vertex="1">
          <mxGeometry x="1005.5" y="2921" width="40" height="450" as="geometry" />
        </mxCell>
        <mxCell id="3DPxSHLYKBOaZ5h03i6D-44" value="" style="rounded=0;whiteSpace=wrap;html=1;strokeColor=default;strokeWidth=0;perimeterSpacing=1;shadow=0;" parent="3DPxSHLYKBOaZ5h03i6D-379" vertex="1">
          <mxGeometry x="1045.5" y="3351" width="1700" height="20" as="geometry" />
        </mxCell>
        <mxCell id="3DPxSHLYKBOaZ5h03i6D-45" value="" style="rounded=0;whiteSpace=wrap;html=1;strokeColor=default;strokeWidth=0;perimeterSpacing=1;shadow=0;" parent="3DPxSHLYKBOaZ5h03i6D-379" vertex="1">
          <mxGeometry x="765.5" y="1891" width="20" height="600" as="geometry" />
        </mxCell>
        <mxCell id="3DPxSHLYKBOaZ5h03i6D-46" value="" style="rounded=0;whiteSpace=wrap;html=1;strokeColor=default;strokeWidth=0;perimeterSpacing=1;shadow=0;" parent="3DPxSHLYKBOaZ5h03i6D-379" vertex="1">
          <mxGeometry x="765.5" y="4231" width="20" height="600" as="geometry" />
        </mxCell>
        <mxCell id="3DPxSHLYKBOaZ5h03i6D-47" value="" style="rounded=0;whiteSpace=wrap;html=1;strokeColor=default;strokeWidth=0;perimeterSpacing=1;shadow=0;" parent="3DPxSHLYKBOaZ5h03i6D-379" vertex="1">
          <mxGeometry x="1275.5" y="2981" width="600" height="20" as="geometry" />
        </mxCell>
        <mxCell id="3DPxSHLYKBOaZ5h03i6D-48" value="" style="rounded=0;whiteSpace=wrap;html=1;strokeColor=default;strokeWidth=0;perimeterSpacing=1;shadow=0;" parent="3DPxSHLYKBOaZ5h03i6D-379" vertex="1">
          <mxGeometry x="1275.5" y="3721" width="600" height="20" as="geometry" />
        </mxCell>
        <mxCell id="3DPxSHLYKBOaZ5h03i6D-49" value="" style="verticalLabelPosition=bottom;verticalAlign=top;html=1;shape=mxgraph.basic.partConcEllipse;startAngle=0.5;endAngle=0.7515914963824541;arcWidth=0.04;rotation=90;strokeColor=default;strokeWidth=0;perimeterSpacing=1;shadow=0;" parent="3DPxSHLYKBOaZ5h03i6D-379" vertex="1">
          <mxGeometry x="765.5" y="3721.5" width="1035" height="1035" as="geometry" />
        </mxCell>
        <mxCell id="3DPxSHLYKBOaZ5h03i6D-50" value="" style="verticalLabelPosition=bottom;verticalAlign=top;html=1;shape=mxgraph.basic.partConcEllipse;startAngle=0.5;endAngle=0.7515914963824541;arcWidth=0.04;rotation=0;strokeColor=default;strokeWidth=0;perimeterSpacing=1;shadow=0;" parent="3DPxSHLYKBOaZ5h03i6D-379" vertex="1">
          <mxGeometry x="765.5" y="1966.5" width="1035" height="1035" as="geometry" />
        </mxCell>
        <mxCell id="3DPxSHLYKBOaZ5h03i6D-51" value="" style="rounded=0;whiteSpace=wrap;html=1;strokeColor=default;strokeWidth=0;perimeterSpacing=1;shadow=0;" parent="3DPxSHLYKBOaZ5h03i6D-379" vertex="1">
          <mxGeometry x="25.5" y="51" width="20" height="5790" as="geometry" />
        </mxCell>
        <mxCell id="3DPxSHLYKBOaZ5h03i6D-54" value="" style="rounded=0;whiteSpace=wrap;html=1;strokeColor=default;strokeWidth=0;perimeterSpacing=1;shadow=0;" parent="3DPxSHLYKBOaZ5h03i6D-379" vertex="1">
          <mxGeometry x="395.5" y="3966" width="450" height="40" as="geometry" />
        </mxCell>
        <mxCell id="3DPxSHLYKBOaZ5h03i6D-55" value="" style="rounded=0;whiteSpace=wrap;html=1;strokeColor=default;strokeWidth=0;perimeterSpacing=1;shadow=0;" parent="3DPxSHLYKBOaZ5h03i6D-379" vertex="1">
          <mxGeometry x="395.5" y="4006" width="20" height="1500" as="geometry" />
        </mxCell>
        <mxCell id="3DPxSHLYKBOaZ5h03i6D-62" value="" style="rounded=0;whiteSpace=wrap;html=1;strokeWidth=0;strokeColor=default;perimeterSpacing=1;shadow=0;" parent="3DPxSHLYKBOaZ5h03i6D-379" vertex="1">
          <mxGeometry x="2965.5" y="4831" width="20" height="600" as="geometry" />
        </mxCell>
        <mxCell id="3DPxSHLYKBOaZ5h03i6D-63" value="" style="rounded=0;whiteSpace=wrap;html=1;strokeColor=default;strokeWidth=0;perimeterSpacing=1;shadow=0;" parent="3DPxSHLYKBOaZ5h03i6D-379" vertex="1">
          <mxGeometry x="1875.5" y="5921" width="600" height="20" as="geometry" />
        </mxCell>
        <mxCell id="3DPxSHLYKBOaZ5h03i6D-64" value="" style="verticalLabelPosition=bottom;verticalAlign=top;html=1;shape=mxgraph.basic.partConcEllipse;startAngle=0.5;endAngle=0.7515914963824541;arcWidth=0.04;rotation=-90;strokeWidth=0;strokeColor=default;perimeterSpacing=1;shadow=0;" parent="3DPxSHLYKBOaZ5h03i6D-379" vertex="1">
          <mxGeometry x="1950.5" y="4906" width="1035" height="1035" as="geometry" />
        </mxCell>
        <mxCell id="3DPxSHLYKBOaZ5h03i6D-65" value="" style="rounded=0;whiteSpace=wrap;html=1;strokeColor=default;strokeWidth=0;perimeterSpacing=1;shadow=0;" parent="3DPxSHLYKBOaZ5h03i6D-379" vertex="1">
          <mxGeometry x="765.5" y="4831" width="20" height="600" as="geometry" />
        </mxCell>
        <mxCell id="3DPxSHLYKBOaZ5h03i6D-66" value="" style="rounded=0;whiteSpace=wrap;html=1;strokeColor=default;strokeWidth=0;perimeterSpacing=1;shadow=0;" parent="3DPxSHLYKBOaZ5h03i6D-379" vertex="1">
          <mxGeometry x="1275.5" y="5921" width="600" height="20" as="geometry" />
        </mxCell>
        <mxCell id="3DPxSHLYKBOaZ5h03i6D-67" value="" style="verticalLabelPosition=bottom;verticalAlign=top;html=1;shape=mxgraph.basic.partConcEllipse;startAngle=0.5;endAngle=0.7515914963824541;arcWidth=0.04;rotation=0;strokeColor=default;strokeWidth=0;perimeterSpacing=1;shadow=0;" parent="3DPxSHLYKBOaZ5h03i6D-379" vertex="1">
          <mxGeometry x="765.5" y="4906.5" width="1035" height="1035" as="geometry" />
        </mxCell>
        <mxCell id="3DPxSHLYKBOaZ5h03i6D-68" value="" style="rounded=0;whiteSpace=wrap;html=1;strokeColor=default;strokeWidth=0;perimeterSpacing=1;shadow=0;" parent="3DPxSHLYKBOaZ5h03i6D-379" vertex="1">
          <mxGeometry x="541.5" y="6341" width="1000" height="20" as="geometry" />
        </mxCell>
        <mxCell id="3DPxSHLYKBOaZ5h03i6D-69" value="" style="verticalLabelPosition=bottom;verticalAlign=top;html=1;shape=mxgraph.basic.partConcEllipse;startAngle=0.5;endAngle=0.7515914963824541;arcWidth=0.04;rotation=0;strokeColor=default;strokeWidth=0;perimeterSpacing=1;shadow=0;" parent="3DPxSHLYKBOaZ5h03i6D-379" vertex="1">
          <mxGeometry x="25.5" y="5326" width="1035" height="1035" as="geometry" />
        </mxCell>
        <mxCell id="3DPxSHLYKBOaZ5h03i6D-71" value="" style="rounded=0;whiteSpace=wrap;html=1;strokeColor=default;strokeWidth=0;perimeterSpacing=1;shadow=0;" parent="3DPxSHLYKBOaZ5h03i6D-379" vertex="1">
          <mxGeometry x="1875.5" y="781" width="600" height="20" as="geometry" />
        </mxCell>
        <mxCell id="3DPxSHLYKBOaZ5h03i6D-72" value="" style="verticalLabelPosition=bottom;verticalAlign=top;html=1;shape=mxgraph.basic.partConcEllipse;startAngle=0.5;endAngle=0.7515914963824541;arcWidth=0.04;rotation=-180;strokeColor=default;strokeWidth=0;perimeterSpacing=1;shadow=0;" parent="3DPxSHLYKBOaZ5h03i6D-379" vertex="1">
          <mxGeometry x="1950.5" y="781" width="1035" height="1035" as="geometry" />
        </mxCell>
        <mxCell id="3DPxSHLYKBOaZ5h03i6D-73" value="" style="rounded=0;whiteSpace=wrap;html=1;strokeColor=default;strokeWidth=0;perimeterSpacing=1;shadow=0;" parent="3DPxSHLYKBOaZ5h03i6D-379" vertex="1">
          <mxGeometry x="765.5" y="1291" width="20" height="600" as="geometry" />
        </mxCell>
        <mxCell id="3DPxSHLYKBOaZ5h03i6D-74" value="" style="rounded=0;whiteSpace=wrap;html=1;strokeColor=default;strokeWidth=0;perimeterSpacing=1;shadow=0;" parent="3DPxSHLYKBOaZ5h03i6D-379" vertex="1">
          <mxGeometry x="1275.5" y="781" width="600" height="20" as="geometry" />
        </mxCell>
        <mxCell id="3DPxSHLYKBOaZ5h03i6D-75" value="" style="verticalLabelPosition=bottom;verticalAlign=top;html=1;shape=mxgraph.basic.partConcEllipse;startAngle=0.5;endAngle=0.7515914963824541;arcWidth=0.04;rotation=90;strokeColor=default;strokeWidth=0;perimeterSpacing=1;shadow=0;" parent="3DPxSHLYKBOaZ5h03i6D-379" vertex="1">
          <mxGeometry x="765.5" y="781.5" width="1035" height="1035" as="geometry" />
        </mxCell>
        <mxCell id="3DPxSHLYKBOaZ5h03i6D-76" value="" style="rounded=0;whiteSpace=wrap;html=1;strokeColor=default;strokeWidth=0;perimeterSpacing=1;shadow=0;" parent="3DPxSHLYKBOaZ5h03i6D-379" vertex="1">
          <mxGeometry x="2965.5" y="1291" width="20" height="600" as="geometry" />
        </mxCell>
        <mxCell id="3DPxSHLYKBOaZ5h03i6D-77" value="" style="rounded=0;whiteSpace=wrap;html=1;strokeColor=default;strokeWidth=0;perimeterSpacing=1;shadow=0;" parent="3DPxSHLYKBOaZ5h03i6D-379" vertex="1">
          <mxGeometry x="75.5" y="2081" width="30" height="350" as="geometry" />
        </mxCell>
        <mxCell id="3DPxSHLYKBOaZ5h03i6D-79" value="" style="rounded=0;whiteSpace=wrap;html=1;strokeColor=default;strokeWidth=0;perimeterSpacing=1;shadow=0;" parent="3DPxSHLYKBOaZ5h03i6D-379" vertex="1">
          <mxGeometry x="45.5" y="2016" width="350" height="40" as="geometry" />
        </mxCell>
        <mxCell id="3DPxSHLYKBOaZ5h03i6D-80" value="" style="rounded=0;whiteSpace=wrap;html=1;strokeColor=default;strokeWidth=0;perimeterSpacing=1;shadow=0;" parent="3DPxSHLYKBOaZ5h03i6D-379" vertex="1">
          <mxGeometry x="285.5" y="2081" width="30" height="350" as="geometry" />
        </mxCell>
        <mxCell id="3DPxSHLYKBOaZ5h03i6D-82" value="" style="rounded=0;whiteSpace=wrap;html=1;strokeColor=default;strokeWidth=0;perimeterSpacing=1;shadow=0;" parent="3DPxSHLYKBOaZ5h03i6D-379" vertex="1">
          <mxGeometry x="145.5" y="2081" width="30" height="350" as="geometry" />
        </mxCell>
        <mxCell id="3DPxSHLYKBOaZ5h03i6D-83" value="" style="rounded=0;whiteSpace=wrap;html=1;strokeColor=default;strokeWidth=0;perimeterSpacing=1;shadow=0;" parent="3DPxSHLYKBOaZ5h03i6D-379" vertex="1">
          <mxGeometry x="355.5" y="2081" width="30" height="350" as="geometry" />
        </mxCell>
        <mxCell id="3DPxSHLYKBOaZ5h03i6D-84" value="" style="rounded=0;whiteSpace=wrap;html=1;strokeColor=default;strokeWidth=0;perimeterSpacing=1;shadow=0;" parent="3DPxSHLYKBOaZ5h03i6D-379" vertex="1">
          <mxGeometry x="215.5" y="2081" width="30" height="350" as="geometry" />
        </mxCell>
        <mxCell id="3DPxSHLYKBOaZ5h03i6D-86" value="" style="rounded=0;whiteSpace=wrap;html=1;strokeColor=default;strokeWidth=0;perimeterSpacing=1;shadow=0;" parent="3DPxSHLYKBOaZ5h03i6D-379" vertex="1">
          <mxGeometry x="425.5" y="2081" width="30" height="350" as="geometry" />
        </mxCell>
        <mxCell id="3DPxSHLYKBOaZ5h03i6D-88" value="" style="rounded=0;whiteSpace=wrap;html=1;strokeColor=default;strokeWidth=0;perimeterSpacing=1;shadow=0;" parent="3DPxSHLYKBOaZ5h03i6D-379" vertex="1">
          <mxGeometry x="495.5" y="2081" width="30" height="350" as="geometry" />
        </mxCell>
        <mxCell id="3DPxSHLYKBOaZ5h03i6D-92" value="" style="rounded=0;whiteSpace=wrap;html=1;strokeColor=default;strokeWidth=0;perimeterSpacing=1;shadow=0;" parent="3DPxSHLYKBOaZ5h03i6D-379" vertex="1">
          <mxGeometry x="565.5" y="2081" width="30" height="350" as="geometry" />
        </mxCell>
        <mxCell id="3DPxSHLYKBOaZ5h03i6D-94" value="" style="rounded=0;whiteSpace=wrap;html=1;strokeColor=default;strokeWidth=0;perimeterSpacing=1;shadow=0;" parent="3DPxSHLYKBOaZ5h03i6D-379" vertex="1">
          <mxGeometry x="635.5" y="2081" width="30" height="350" as="geometry" />
        </mxCell>
        <mxCell id="3DPxSHLYKBOaZ5h03i6D-96" value="" style="rounded=0;whiteSpace=wrap;html=1;strokeColor=default;strokeWidth=0;perimeterSpacing=1;shadow=0;" parent="3DPxSHLYKBOaZ5h03i6D-379" vertex="1">
          <mxGeometry x="705.5" y="2081" width="30" height="350" as="geometry" />
        </mxCell>
        <mxCell id="3DPxSHLYKBOaZ5h03i6D-98" value="" style="rounded=0;whiteSpace=wrap;html=1;strokeColor=default;strokeWidth=0;perimeterSpacing=1;shadow=0;" parent="3DPxSHLYKBOaZ5h03i6D-379" vertex="1">
          <mxGeometry x="415.5" y="2466" width="350" height="40" as="geometry" />
        </mxCell>
        <mxCell id="3DPxSHLYKBOaZ5h03i6D-100" value="" style="rounded=0;whiteSpace=wrap;html=1;strokeColor=default;strokeWidth=0;perimeterSpacing=1;shadow=0;" parent="3DPxSHLYKBOaZ5h03i6D-379" vertex="1">
          <mxGeometry x="375.5" y="1021" width="20" height="995" as="geometry" />
        </mxCell>
        <mxCell id="3DPxSHLYKBOaZ5h03i6D-101" value="" style="rounded=0;whiteSpace=wrap;html=1;strokeColor=default;strokeWidth=0;perimeterSpacing=1;shadow=0;" parent="3DPxSHLYKBOaZ5h03i6D-379" vertex="1">
          <mxGeometry x="1540.5" y="6341" width="3930" height="20" as="geometry" />
        </mxCell>
        <mxCell id="3DPxSHLYKBOaZ5h03i6D-108" value="" style="rounded=0;whiteSpace=wrap;html=1;strokeColor=default;strokeWidth=0;perimeterSpacing=1;shadow=0;" parent="3DPxSHLYKBOaZ5h03i6D-379" vertex="1">
          <mxGeometry x="45.5" y="51" width="5930" height="20" as="geometry" />
        </mxCell>
        <mxCell id="3DPxSHLYKBOaZ5h03i6D-129" value="" style="rounded=0;whiteSpace=wrap;html=1;strokeColor=default;strokeWidth=0;perimeterSpacing=1;shadow=0;" parent="3DPxSHLYKBOaZ5h03i6D-379" vertex="1">
          <mxGeometry x="5955.5" y="71" width="20" height="5800" as="geometry" />
        </mxCell>
        <mxCell id="3DPxSHLYKBOaZ5h03i6D-130" value="" style="rounded=0;whiteSpace=wrap;html=1;strokeColor=default;strokeWidth=0;perimeterSpacing=1;shadow=0;" parent="3DPxSHLYKBOaZ5h03i6D-379" vertex="1">
          <mxGeometry x="3705.5" y="4831" width="20" height="600" as="geometry" />
        </mxCell>
        <mxCell id="3DPxSHLYKBOaZ5h03i6D-131" value="" style="rounded=0;whiteSpace=wrap;html=1;strokeColor=default;strokeWidth=0;perimeterSpacing=1;shadow=0;" parent="3DPxSHLYKBOaZ5h03i6D-379" vertex="1">
          <mxGeometry x="4215.5" y="5921" width="1020" height="20" as="geometry" />
        </mxCell>
        <mxCell id="3DPxSHLYKBOaZ5h03i6D-132" value="" style="verticalLabelPosition=bottom;verticalAlign=top;html=1;shape=mxgraph.basic.partConcEllipse;startAngle=0.5;endAngle=0.7515914963824541;arcWidth=0.04;rotation=0;strokeColor=default;strokeWidth=0;perimeterSpacing=1;shadow=0;" parent="3DPxSHLYKBOaZ5h03i6D-379" vertex="1">
          <mxGeometry x="3705.5" y="4906.5" width="1035" height="1035" as="geometry" />
        </mxCell>
        <mxCell id="3DPxSHLYKBOaZ5h03i6D-133" value="" style="rounded=0;whiteSpace=wrap;html=1;strokeColor=default;strokeWidth=0;perimeterSpacing=1;shadow=0;" parent="3DPxSHLYKBOaZ5h03i6D-379" vertex="1">
          <mxGeometry x="5215.5" y="782" width="20" height="3440" as="geometry" />
        </mxCell>
        <mxCell id="3DPxSHLYKBOaZ5h03i6D-134" value="" style="rounded=0;whiteSpace=wrap;html=1;strokeColor=default;strokeWidth=0;perimeterSpacing=1;shadow=0;" parent="3DPxSHLYKBOaZ5h03i6D-379" vertex="1">
          <mxGeometry x="3705.5" y="1291.5" width="20" height="600" as="geometry" />
        </mxCell>
        <mxCell id="3DPxSHLYKBOaZ5h03i6D-135" value="" style="rounded=0;whiteSpace=wrap;html=1;strokeColor=default;strokeWidth=0;perimeterSpacing=1;shadow=0;" parent="3DPxSHLYKBOaZ5h03i6D-379" vertex="1">
          <mxGeometry x="4215.5" y="781.5" width="1000" height="20" as="geometry" />
        </mxCell>
        <mxCell id="3DPxSHLYKBOaZ5h03i6D-136" value="" style="verticalLabelPosition=bottom;verticalAlign=top;html=1;shape=mxgraph.basic.partConcEllipse;startAngle=0.5;endAngle=0.7515914963824541;arcWidth=0.04;rotation=90;strokeColor=default;strokeWidth=0;perimeterSpacing=1;shadow=0;" parent="3DPxSHLYKBOaZ5h03i6D-379" vertex="1">
          <mxGeometry x="3705.5" y="782" width="1035" height="1035" as="geometry" />
        </mxCell>
        <mxCell id="3DPxSHLYKBOaZ5h03i6D-139" value="" style="rounded=0;whiteSpace=wrap;html=1;fillColor=#FFFF00;strokeColor=default;fontColor=#000000;strokeWidth=0;perimeterSpacing=1;shadow=0;" parent="3DPxSHLYKBOaZ5h03i6D-379" vertex="1">
          <mxGeometry x="5585.5" y="1951" width="20" height="2270" as="geometry" />
        </mxCell>
        <mxCell id="3DPxSHLYKBOaZ5h03i6D-141" value="" style="verticalLabelPosition=bottom;verticalAlign=top;html=1;shape=mxgraph.basic.partConcEllipse;startAngle=0.5;endAngle=0.7515914963824541;arcWidth=0.04;rotation=-90;strokeWidth=0;strokeColor=default;perimeterSpacing=1;shadow=0;" parent="3DPxSHLYKBOaZ5h03i6D-379" vertex="1">
          <mxGeometry x="4940.5" y="5326" width="1035" height="1035" as="geometry" />
        </mxCell>
        <mxCell id="3DPxSHLYKBOaZ5h03i6D-161" value="" style="rounded=0;whiteSpace=wrap;html=1;strokeColor=default;strokeWidth=0;perimeterSpacing=1;shadow=0;fillColor=#FFFF00;" parent="3DPxSHLYKBOaZ5h03i6D-379" vertex="1">
          <mxGeometry x="2793.5" y="411" width="45" height="20" as="geometry" />
        </mxCell>
        <mxCell id="3DPxSHLYKBOaZ5h03i6D-162" value="" style="rounded=0;whiteSpace=wrap;html=1;strokeColor=default;strokeWidth=0;perimeterSpacing=1;shadow=0;fillColor=#FFFF00;" parent="3DPxSHLYKBOaZ5h03i6D-379" vertex="1">
          <mxGeometry x="2883.5" y="411" width="45" height="20" as="geometry" />
        </mxCell>
        <mxCell id="3DPxSHLYKBOaZ5h03i6D-163" value="" style="rounded=0;whiteSpace=wrap;html=1;strokeColor=default;strokeWidth=0;perimeterSpacing=1;shadow=0;fillColor=#FFFF00;" parent="3DPxSHLYKBOaZ5h03i6D-379" vertex="1">
          <mxGeometry x="2973.5" y="411" width="45" height="20" as="geometry" />
        </mxCell>
        <mxCell id="3DPxSHLYKBOaZ5h03i6D-164" value="" style="rounded=0;whiteSpace=wrap;html=1;strokeColor=default;strokeWidth=0;perimeterSpacing=1;shadow=0;fillColor=#FFFF00;" parent="3DPxSHLYKBOaZ5h03i6D-379" vertex="1">
          <mxGeometry x="3063.5" y="411" width="45" height="20" as="geometry" />
        </mxCell>
        <mxCell id="3DPxSHLYKBOaZ5h03i6D-165" value="" style="rounded=0;whiteSpace=wrap;html=1;strokeColor=default;strokeWidth=0;perimeterSpacing=1;shadow=0;fillColor=#FFFF00;" parent="3DPxSHLYKBOaZ5h03i6D-379" vertex="1">
          <mxGeometry x="3153.5" y="411" width="45" height="20" as="geometry" />
        </mxCell>
        <mxCell id="3DPxSHLYKBOaZ5h03i6D-166" value="" style="rounded=0;whiteSpace=wrap;html=1;strokeColor=default;strokeWidth=0;perimeterSpacing=1;shadow=0;fillColor=#FFFF00;" parent="3DPxSHLYKBOaZ5h03i6D-379" vertex="1">
          <mxGeometry x="3243.5" y="411" width="45" height="20" as="geometry" />
        </mxCell>
        <mxCell id="3DPxSHLYKBOaZ5h03i6D-167" value="" style="rounded=0;whiteSpace=wrap;html=1;strokeColor=default;strokeWidth=0;perimeterSpacing=1;shadow=0;fillColor=#FFFF00;" parent="3DPxSHLYKBOaZ5h03i6D-379" vertex="1">
          <mxGeometry x="3333.5" y="411" width="45" height="20" as="geometry" />
        </mxCell>
        <mxCell id="3DPxSHLYKBOaZ5h03i6D-168" value="" style="rounded=0;whiteSpace=wrap;html=1;strokeColor=default;strokeWidth=0;perimeterSpacing=1;shadow=0;fillColor=#FFFF00;" parent="3DPxSHLYKBOaZ5h03i6D-379" vertex="1">
          <mxGeometry x="3423.5" y="411" width="45" height="20" as="geometry" />
        </mxCell>
        <mxCell id="3DPxSHLYKBOaZ5h03i6D-169" value="" style="rounded=0;whiteSpace=wrap;html=1;strokeColor=default;strokeWidth=0;perimeterSpacing=1;shadow=0;fillColor=#FFFF00;" parent="3DPxSHLYKBOaZ5h03i6D-379" vertex="1">
          <mxGeometry x="3513.5" y="411" width="45" height="20" as="geometry" />
        </mxCell>
        <mxCell id="3DPxSHLYKBOaZ5h03i6D-170" value="" style="rounded=0;whiteSpace=wrap;html=1;strokeColor=default;strokeWidth=0;perimeterSpacing=1;shadow=0;fillColor=#FFFF00;" parent="3DPxSHLYKBOaZ5h03i6D-379" vertex="1">
          <mxGeometry x="3603.5" y="411" width="45" height="20" as="geometry" />
        </mxCell>
        <mxCell id="3DPxSHLYKBOaZ5h03i6D-171" value="" style="rounded=0;whiteSpace=wrap;html=1;strokeColor=default;strokeWidth=0;perimeterSpacing=1;shadow=0;fillColor=#FFFF00;" parent="3DPxSHLYKBOaZ5h03i6D-379" vertex="1">
          <mxGeometry x="3693.5" y="411" width="45" height="20" as="geometry" />
        </mxCell>
        <mxCell id="3DPxSHLYKBOaZ5h03i6D-172" value="" style="rounded=0;whiteSpace=wrap;html=1;strokeColor=default;strokeWidth=0;perimeterSpacing=1;shadow=0;fillColor=#FFFF00;" parent="3DPxSHLYKBOaZ5h03i6D-379" vertex="1">
          <mxGeometry x="3783.5" y="411" width="45" height="20" as="geometry" />
        </mxCell>
        <mxCell id="3DPxSHLYKBOaZ5h03i6D-173" value="" style="rounded=0;whiteSpace=wrap;html=1;strokeColor=default;strokeWidth=0;perimeterSpacing=1;shadow=0;fillColor=#FFFF00;" parent="3DPxSHLYKBOaZ5h03i6D-379" vertex="1">
          <mxGeometry x="3873.5" y="411" width="45" height="20" as="geometry" />
        </mxCell>
        <mxCell id="3DPxSHLYKBOaZ5h03i6D-174" value="" style="rounded=0;whiteSpace=wrap;html=1;strokeColor=default;strokeWidth=0;perimeterSpacing=1;shadow=0;fillColor=#FFFF00;" parent="3DPxSHLYKBOaZ5h03i6D-379" vertex="1">
          <mxGeometry x="3963.5" y="411" width="45" height="20" as="geometry" />
        </mxCell>
        <mxCell id="3DPxSHLYKBOaZ5h03i6D-175" value="" style="rounded=0;whiteSpace=wrap;html=1;strokeColor=default;strokeWidth=0;perimeterSpacing=1;shadow=0;fillColor=#FFFF00;" parent="3DPxSHLYKBOaZ5h03i6D-379" vertex="1">
          <mxGeometry x="4053.5" y="411" width="45" height="20" as="geometry" />
        </mxCell>
        <mxCell id="3DPxSHLYKBOaZ5h03i6D-176" value="" style="rounded=0;whiteSpace=wrap;html=1;strokeColor=default;strokeWidth=0;perimeterSpacing=1;shadow=0;fillColor=#FFFF00;" parent="3DPxSHLYKBOaZ5h03i6D-379" vertex="1">
          <mxGeometry x="4143.5" y="411" width="45" height="20" as="geometry" />
        </mxCell>
        <mxCell id="3DPxSHLYKBOaZ5h03i6D-177" value="" style="rounded=0;whiteSpace=wrap;html=1;strokeColor=default;strokeWidth=0;perimeterSpacing=1;shadow=0;fillColor=#FFFF00;" parent="3DPxSHLYKBOaZ5h03i6D-379" vertex="1">
          <mxGeometry x="4233.5" y="411" width="45" height="20" as="geometry" />
        </mxCell>
        <mxCell id="3DPxSHLYKBOaZ5h03i6D-178" value="" style="rounded=0;whiteSpace=wrap;html=1;strokeColor=default;strokeWidth=0;perimeterSpacing=1;shadow=0;fillColor=#FFFF00;" parent="3DPxSHLYKBOaZ5h03i6D-379" vertex="1">
          <mxGeometry x="4323.5" y="411" width="45" height="20" as="geometry" />
        </mxCell>
        <mxCell id="3DPxSHLYKBOaZ5h03i6D-180" value="" style="rounded=0;whiteSpace=wrap;html=1;strokeColor=default;strokeWidth=0;perimeterSpacing=1;shadow=0;" parent="3DPxSHLYKBOaZ5h03i6D-379" vertex="1">
          <mxGeometry x="4826" y="4221" width="20" height="765" as="geometry" />
        </mxCell>
        <mxCell id="3DPxSHLYKBOaZ5h03i6D-181" value="" style="rounded=0;whiteSpace=wrap;html=1;strokeColor=default;strokeWidth=0;perimeterSpacing=1;shadow=0;" parent="3DPxSHLYKBOaZ5h03i6D-379" vertex="1">
          <mxGeometry x="4846" y="4966" width="390" height="20" as="geometry" />
        </mxCell>
        <mxCell id="3DPxSHLYKBOaZ5h03i6D-182" value="" style="rounded=0;whiteSpace=wrap;html=1;strokeColor=default;strokeWidth=0;perimeterSpacing=1;shadow=0;" parent="3DPxSHLYKBOaZ5h03i6D-379" vertex="1">
          <mxGeometry x="4846" y="4221" width="390" height="20" as="geometry" />
        </mxCell>
        <mxCell id="3DPxSHLYKBOaZ5h03i6D-186" value="" style="rounded=0;whiteSpace=wrap;html=1;strokeColor=default;strokeWidth=0;perimeterSpacing=1;shadow=0;" parent="3DPxSHLYKBOaZ5h03i6D-379" vertex="1">
          <mxGeometry x="5216" y="4266" width="20" height="45" as="geometry" />
        </mxCell>
        <mxCell id="3DPxSHLYKBOaZ5h03i6D-188" value="" style="rounded=0;whiteSpace=wrap;html=1;strokeColor=default;strokeWidth=0;perimeterSpacing=1;shadow=0;" parent="3DPxSHLYKBOaZ5h03i6D-379" vertex="1">
          <mxGeometry x="5216" y="4356" width="20" height="45" as="geometry" />
        </mxCell>
        <mxCell id="3DPxSHLYKBOaZ5h03i6D-190" value="" style="rounded=0;whiteSpace=wrap;html=1;strokeColor=default;strokeWidth=0;perimeterSpacing=1;shadow=0;" parent="3DPxSHLYKBOaZ5h03i6D-379" vertex="1">
          <mxGeometry x="5216" y="4446" width="20" height="45" as="geometry" />
        </mxCell>
        <mxCell id="3DPxSHLYKBOaZ5h03i6D-191" value="" style="rounded=0;whiteSpace=wrap;html=1;strokeColor=default;strokeWidth=0;perimeterSpacing=1;shadow=0;" parent="3DPxSHLYKBOaZ5h03i6D-379" vertex="1">
          <mxGeometry x="5216" y="4536" width="20" height="45" as="geometry" />
        </mxCell>
        <mxCell id="3DPxSHLYKBOaZ5h03i6D-193" value="" style="rounded=0;whiteSpace=wrap;html=1;strokeColor=default;strokeWidth=0;perimeterSpacing=1;shadow=0;" parent="3DPxSHLYKBOaZ5h03i6D-379" vertex="1">
          <mxGeometry x="5216" y="4626" width="20" height="45" as="geometry" />
        </mxCell>
        <mxCell id="3DPxSHLYKBOaZ5h03i6D-194" value="" style="rounded=0;whiteSpace=wrap;html=1;strokeColor=default;strokeWidth=0;perimeterSpacing=1;shadow=0;" parent="3DPxSHLYKBOaZ5h03i6D-379" vertex="1">
          <mxGeometry x="5216" y="4716" width="20" height="45" as="geometry" />
        </mxCell>
        <mxCell id="3DPxSHLYKBOaZ5h03i6D-195" value="" style="rounded=0;whiteSpace=wrap;html=1;strokeColor=default;strokeWidth=0;perimeterSpacing=1;shadow=0;" parent="3DPxSHLYKBOaZ5h03i6D-379" vertex="1">
          <mxGeometry x="5216" y="4806" width="20" height="45" as="geometry" />
        </mxCell>
        <mxCell id="3DPxSHLYKBOaZ5h03i6D-196" value="" style="rounded=0;whiteSpace=wrap;html=1;strokeColor=default;strokeWidth=0;perimeterSpacing=1;shadow=0;" parent="3DPxSHLYKBOaZ5h03i6D-379" vertex="1">
          <mxGeometry x="5216" y="4896" width="20" height="45" as="geometry" />
        </mxCell>
        <mxCell id="3DPxSHLYKBOaZ5h03i6D-199" value="" style="rounded=0;whiteSpace=wrap;html=1;strokeColor=default;strokeWidth=0;perimeterSpacing=1;shadow=0;fillColor=#FFFF00;" parent="3DPxSHLYKBOaZ5h03i6D-379" vertex="1">
          <mxGeometry x="4413.5" y="411" width="45" height="20" as="geometry" />
        </mxCell>
        <mxCell id="3DPxSHLYKBOaZ5h03i6D-200" value="" style="rounded=0;whiteSpace=wrap;html=1;strokeColor=default;strokeWidth=0;perimeterSpacing=1;shadow=0;fillColor=#FFFF00;" parent="3DPxSHLYKBOaZ5h03i6D-379" vertex="1">
          <mxGeometry x="4503.5" y="411" width="45" height="20" as="geometry" />
        </mxCell>
        <mxCell id="3DPxSHLYKBOaZ5h03i6D-201" value="" style="rounded=0;whiteSpace=wrap;html=1;strokeColor=default;strokeWidth=0;perimeterSpacing=1;shadow=0;fillColor=#FFFF00;" parent="3DPxSHLYKBOaZ5h03i6D-379" vertex="1">
          <mxGeometry x="4593.5" y="411" width="45" height="20" as="geometry" />
        </mxCell>
        <mxCell id="3DPxSHLYKBOaZ5h03i6D-202" value="" style="rounded=0;whiteSpace=wrap;html=1;strokeColor=default;strokeWidth=0;perimeterSpacing=1;shadow=0;fillColor=#FFFF00;" parent="3DPxSHLYKBOaZ5h03i6D-379" vertex="1">
          <mxGeometry x="4683.5" y="411" width="45" height="20" as="geometry" />
        </mxCell>
        <mxCell id="3DPxSHLYKBOaZ5h03i6D-203" value="" style="rounded=0;whiteSpace=wrap;html=1;strokeColor=default;strokeWidth=0;perimeterSpacing=1;shadow=0;fillColor=#FFFF00;" parent="3DPxSHLYKBOaZ5h03i6D-379" vertex="1">
          <mxGeometry x="4773.5" y="411" width="45" height="20" as="geometry" />
        </mxCell>
        <mxCell id="3DPxSHLYKBOaZ5h03i6D-204" value="" style="rounded=0;whiteSpace=wrap;html=1;strokeColor=default;strokeWidth=0;perimeterSpacing=1;shadow=0;fillColor=#FFFF00;" parent="3DPxSHLYKBOaZ5h03i6D-379" vertex="1">
          <mxGeometry x="4863.5" y="411" width="45" height="20" as="geometry" />
        </mxCell>
        <mxCell id="3DPxSHLYKBOaZ5h03i6D-205" value="" style="rounded=0;whiteSpace=wrap;html=1;strokeColor=default;strokeWidth=0;perimeterSpacing=1;shadow=0;fillColor=#FFFF00;" parent="3DPxSHLYKBOaZ5h03i6D-379" vertex="1">
          <mxGeometry x="4953.5" y="411" width="45" height="20" as="geometry" />
        </mxCell>
        <mxCell id="3DPxSHLYKBOaZ5h03i6D-206" value="" style="rounded=0;whiteSpace=wrap;html=1;strokeColor=default;strokeWidth=0;perimeterSpacing=1;shadow=0;fillColor=#FFFF00;" parent="3DPxSHLYKBOaZ5h03i6D-379" vertex="1">
          <mxGeometry x="5043.5" y="411" width="45" height="20" as="geometry" />
        </mxCell>
        <mxCell id="3DPxSHLYKBOaZ5h03i6D-207" value="" style="rounded=0;whiteSpace=wrap;html=1;strokeColor=default;strokeWidth=0;perimeterSpacing=1;shadow=0;fillColor=#FFFF00;" parent="3DPxSHLYKBOaZ5h03i6D-379" vertex="1">
          <mxGeometry x="5133.5" y="411" width="45" height="20" as="geometry" />
        </mxCell>
        <mxCell id="3DPxSHLYKBOaZ5h03i6D-208" value="" style="rounded=0;whiteSpace=wrap;html=1;strokeColor=default;strokeWidth=0;perimeterSpacing=1;shadow=0;fillColor=#FFFF00;" parent="3DPxSHLYKBOaZ5h03i6D-379" vertex="1">
          <mxGeometry x="5223.5" y="411" width="45" height="20" as="geometry" />
        </mxCell>
        <mxCell id="3DPxSHLYKBOaZ5h03i6D-209" value="" style="rounded=0;whiteSpace=wrap;html=1;strokeColor=default;strokeWidth=0;perimeterSpacing=1;shadow=0;fillColor=#FFFF00;" parent="3DPxSHLYKBOaZ5h03i6D-379" vertex="1">
          <mxGeometry x="5313.5" y="411" width="45" height="20" as="geometry" />
        </mxCell>
        <mxCell id="3DPxSHLYKBOaZ5h03i6D-210" value="" style="rounded=0;whiteSpace=wrap;html=1;strokeColor=default;strokeWidth=0;perimeterSpacing=1;shadow=0;fillColor=#FFFF00;" parent="3DPxSHLYKBOaZ5h03i6D-379" vertex="1">
          <mxGeometry x="5403.5" y="411" width="45" height="20" as="geometry" />
        </mxCell>
        <mxCell id="3DPxSHLYKBOaZ5h03i6D-211" value="" style="rounded=0;whiteSpace=wrap;html=1;strokeColor=default;strokeWidth=0;perimeterSpacing=1;shadow=0;fillColor=#FFFF00;" parent="3DPxSHLYKBOaZ5h03i6D-379" vertex="1">
          <mxGeometry x="5493.5" y="411" width="45" height="20" as="geometry" />
        </mxCell>
        <mxCell id="3DPxSHLYKBOaZ5h03i6D-226" value="" style="rounded=0;whiteSpace=wrap;html=1;strokeColor=default;strokeWidth=0;perimeterSpacing=1;shadow=0;fillColor=#FFFF00;" parent="3DPxSHLYKBOaZ5h03i6D-379" vertex="1">
          <mxGeometry x="633.5" y="411" width="45" height="20" as="geometry" />
        </mxCell>
        <mxCell id="3DPxSHLYKBOaZ5h03i6D-227" value="" style="rounded=0;whiteSpace=wrap;html=1;strokeColor=default;strokeWidth=0;perimeterSpacing=1;shadow=0;fillColor=#FFFF00;" parent="3DPxSHLYKBOaZ5h03i6D-379" vertex="1">
          <mxGeometry x="723.5" y="411" width="45" height="20" as="geometry" />
        </mxCell>
        <mxCell id="3DPxSHLYKBOaZ5h03i6D-228" value="" style="rounded=0;whiteSpace=wrap;html=1;strokeColor=default;strokeWidth=0;perimeterSpacing=1;shadow=0;fillColor=#FFFF00;" parent="3DPxSHLYKBOaZ5h03i6D-379" vertex="1">
          <mxGeometry x="813.5" y="411" width="45" height="20" as="geometry" />
        </mxCell>
        <mxCell id="3DPxSHLYKBOaZ5h03i6D-229" value="" style="rounded=0;whiteSpace=wrap;html=1;strokeColor=default;strokeWidth=0;perimeterSpacing=1;shadow=0;fillColor=#FFFF00;" parent="3DPxSHLYKBOaZ5h03i6D-379" vertex="1">
          <mxGeometry x="903.5" y="411" width="45" height="20" as="geometry" />
        </mxCell>
        <mxCell id="3DPxSHLYKBOaZ5h03i6D-230" value="" style="rounded=0;whiteSpace=wrap;html=1;strokeColor=default;strokeWidth=0;perimeterSpacing=1;shadow=0;fillColor=#FFFF00;" parent="3DPxSHLYKBOaZ5h03i6D-379" vertex="1">
          <mxGeometry x="993.5" y="411" width="45" height="20" as="geometry" />
        </mxCell>
        <mxCell id="3DPxSHLYKBOaZ5h03i6D-231" value="" style="rounded=0;whiteSpace=wrap;html=1;strokeColor=default;strokeWidth=0;perimeterSpacing=1;shadow=0;fillColor=#FFFF00;" parent="3DPxSHLYKBOaZ5h03i6D-379" vertex="1">
          <mxGeometry x="1083.5" y="411" width="45" height="20" as="geometry" />
        </mxCell>
        <mxCell id="3DPxSHLYKBOaZ5h03i6D-232" value="" style="rounded=0;whiteSpace=wrap;html=1;strokeColor=default;strokeWidth=0;perimeterSpacing=1;shadow=0;fillColor=#FFFF00;" parent="3DPxSHLYKBOaZ5h03i6D-379" vertex="1">
          <mxGeometry x="1173.5" y="411" width="45" height="20" as="geometry" />
        </mxCell>
        <mxCell id="3DPxSHLYKBOaZ5h03i6D-233" value="" style="rounded=0;whiteSpace=wrap;html=1;strokeColor=default;strokeWidth=0;perimeterSpacing=1;shadow=0;fillColor=#FFFF00;" parent="3DPxSHLYKBOaZ5h03i6D-379" vertex="1">
          <mxGeometry x="1263.5" y="411" width="45" height="20" as="geometry" />
        </mxCell>
        <mxCell id="3DPxSHLYKBOaZ5h03i6D-234" value="" style="rounded=0;whiteSpace=wrap;html=1;strokeColor=default;strokeWidth=0;perimeterSpacing=1;shadow=0;fillColor=#FFFF00;" parent="3DPxSHLYKBOaZ5h03i6D-379" vertex="1">
          <mxGeometry x="1353.5" y="411" width="45" height="20" as="geometry" />
        </mxCell>
        <mxCell id="3DPxSHLYKBOaZ5h03i6D-235" value="" style="rounded=0;whiteSpace=wrap;html=1;strokeColor=default;strokeWidth=0;perimeterSpacing=1;shadow=0;fillColor=#FFFF00;" parent="3DPxSHLYKBOaZ5h03i6D-379" vertex="1">
          <mxGeometry x="1443.5" y="411" width="45" height="20" as="geometry" />
        </mxCell>
        <mxCell id="3DPxSHLYKBOaZ5h03i6D-236" value="" style="rounded=0;whiteSpace=wrap;html=1;strokeColor=default;strokeWidth=0;perimeterSpacing=1;shadow=0;fillColor=#FFFF00;" parent="3DPxSHLYKBOaZ5h03i6D-379" vertex="1">
          <mxGeometry x="1533.5" y="411" width="45" height="20" as="geometry" />
        </mxCell>
        <mxCell id="3DPxSHLYKBOaZ5h03i6D-237" value="" style="rounded=0;whiteSpace=wrap;html=1;strokeColor=default;strokeWidth=0;perimeterSpacing=1;shadow=0;fillColor=#FFFF00;" parent="3DPxSHLYKBOaZ5h03i6D-379" vertex="1">
          <mxGeometry x="1623.5" y="411" width="45" height="20" as="geometry" />
        </mxCell>
        <mxCell id="3DPxSHLYKBOaZ5h03i6D-238" value="" style="rounded=0;whiteSpace=wrap;html=1;strokeColor=default;strokeWidth=0;perimeterSpacing=1;shadow=0;fillColor=#FFFF00;" parent="3DPxSHLYKBOaZ5h03i6D-379" vertex="1">
          <mxGeometry x="1713.5" y="411" width="45" height="20" as="geometry" />
        </mxCell>
        <mxCell id="3DPxSHLYKBOaZ5h03i6D-239" value="" style="rounded=0;whiteSpace=wrap;html=1;strokeColor=default;strokeWidth=0;perimeterSpacing=1;shadow=0;fillColor=#FFFF00;" parent="3DPxSHLYKBOaZ5h03i6D-379" vertex="1">
          <mxGeometry x="1803.5" y="411" width="45" height="20" as="geometry" />
        </mxCell>
        <mxCell id="3DPxSHLYKBOaZ5h03i6D-240" value="" style="rounded=0;whiteSpace=wrap;html=1;strokeColor=default;strokeWidth=0;perimeterSpacing=1;shadow=0;fillColor=#FFFF00;" parent="3DPxSHLYKBOaZ5h03i6D-379" vertex="1">
          <mxGeometry x="1893.5" y="411" width="45" height="20" as="geometry" />
        </mxCell>
        <mxCell id="3DPxSHLYKBOaZ5h03i6D-241" value="" style="rounded=0;whiteSpace=wrap;html=1;strokeColor=default;strokeWidth=0;perimeterSpacing=1;shadow=0;fillColor=#FFFF00;" parent="3DPxSHLYKBOaZ5h03i6D-379" vertex="1">
          <mxGeometry x="1983.5" y="411" width="45" height="20" as="geometry" />
        </mxCell>
        <mxCell id="3DPxSHLYKBOaZ5h03i6D-242" value="" style="rounded=0;whiteSpace=wrap;html=1;strokeColor=default;strokeWidth=0;perimeterSpacing=1;shadow=0;fillColor=#FFFF00;" parent="3DPxSHLYKBOaZ5h03i6D-379" vertex="1">
          <mxGeometry x="2073.5" y="411" width="45" height="20" as="geometry" />
        </mxCell>
        <mxCell id="3DPxSHLYKBOaZ5h03i6D-243" value="" style="rounded=0;whiteSpace=wrap;html=1;strokeColor=default;strokeWidth=0;perimeterSpacing=1;shadow=0;fillColor=#FFFF00;" parent="3DPxSHLYKBOaZ5h03i6D-379" vertex="1">
          <mxGeometry x="2163.5" y="411" width="45" height="20" as="geometry" />
        </mxCell>
        <mxCell id="3DPxSHLYKBOaZ5h03i6D-244" value="" style="rounded=0;whiteSpace=wrap;html=1;strokeColor=default;strokeWidth=0;perimeterSpacing=1;shadow=0;fillColor=#FFFF00;" parent="3DPxSHLYKBOaZ5h03i6D-379" vertex="1">
          <mxGeometry x="2253.5" y="411" width="45" height="20" as="geometry" />
        </mxCell>
        <mxCell id="3DPxSHLYKBOaZ5h03i6D-245" value="" style="rounded=0;whiteSpace=wrap;html=1;strokeColor=default;strokeWidth=0;perimeterSpacing=1;shadow=0;fillColor=#FFFF00;" parent="3DPxSHLYKBOaZ5h03i6D-379" vertex="1">
          <mxGeometry x="2343.5" y="411" width="45" height="20" as="geometry" />
        </mxCell>
        <mxCell id="3DPxSHLYKBOaZ5h03i6D-246" value="" style="rounded=0;whiteSpace=wrap;html=1;strokeColor=default;strokeWidth=0;perimeterSpacing=1;shadow=0;fillColor=#FFFF00;" parent="3DPxSHLYKBOaZ5h03i6D-379" vertex="1">
          <mxGeometry x="2433.5" y="411" width="45" height="20" as="geometry" />
        </mxCell>
        <mxCell id="3DPxSHLYKBOaZ5h03i6D-247" value="" style="rounded=0;whiteSpace=wrap;html=1;strokeColor=default;strokeWidth=0;perimeterSpacing=1;shadow=0;fillColor=#FFFF00;" parent="3DPxSHLYKBOaZ5h03i6D-379" vertex="1">
          <mxGeometry x="2523.5" y="411" width="45" height="20" as="geometry" />
        </mxCell>
        <mxCell id="3DPxSHLYKBOaZ5h03i6D-248" value="" style="rounded=0;whiteSpace=wrap;html=1;strokeColor=default;strokeWidth=0;perimeterSpacing=1;shadow=0;fillColor=#FFFF00;" parent="3DPxSHLYKBOaZ5h03i6D-379" vertex="1">
          <mxGeometry x="2613.5" y="411" width="45" height="20" as="geometry" />
        </mxCell>
        <mxCell id="3DPxSHLYKBOaZ5h03i6D-249" value="" style="rounded=0;whiteSpace=wrap;html=1;strokeColor=default;strokeWidth=0;perimeterSpacing=1;shadow=0;fillColor=#FFFF00;" parent="3DPxSHLYKBOaZ5h03i6D-379" vertex="1">
          <mxGeometry x="2703.5" y="411" width="45" height="20" as="geometry" />
        </mxCell>
        <mxCell id="3DPxSHLYKBOaZ5h03i6D-251" value="" style="rounded=0;whiteSpace=wrap;html=1;strokeColor=default;strokeWidth=0;perimeterSpacing=1;shadow=0;" parent="3DPxSHLYKBOaZ5h03i6D-379" vertex="1">
          <mxGeometry x="2705.5" y="3351" width="40" height="450" as="geometry" />
        </mxCell>
        <mxCell id="3DPxSHLYKBOaZ5h03i6D-252" value="" style="rounded=0;whiteSpace=wrap;html=1;strokeColor=default;strokeWidth=0;perimeterSpacing=1;shadow=0;" parent="3DPxSHLYKBOaZ5h03i6D-379" vertex="1">
          <mxGeometry x="4826" y="4986" width="20" height="765" as="geometry" />
        </mxCell>
        <mxCell id="3DPxSHLYKBOaZ5h03i6D-253" value="" style="rounded=0;whiteSpace=wrap;html=1;strokeColor=default;strokeWidth=0;perimeterSpacing=1;shadow=0;" parent="3DPxSHLYKBOaZ5h03i6D-379" vertex="1">
          <mxGeometry x="4845.5" y="5731" width="390" height="20" as="geometry" />
        </mxCell>
        <mxCell id="3DPxSHLYKBOaZ5h03i6D-254" value="" style="rounded=0;whiteSpace=wrap;html=1;strokeColor=default;strokeWidth=0;perimeterSpacing=1;shadow=0;" parent="3DPxSHLYKBOaZ5h03i6D-379" vertex="1">
          <mxGeometry x="5215.5" y="5021" width="20" height="45" as="geometry" />
        </mxCell>
        <mxCell id="3DPxSHLYKBOaZ5h03i6D-255" value="" style="rounded=0;whiteSpace=wrap;html=1;strokeColor=default;strokeWidth=0;perimeterSpacing=1;shadow=0;" parent="3DPxSHLYKBOaZ5h03i6D-379" vertex="1">
          <mxGeometry x="5215.5" y="5111" width="20" height="45" as="geometry" />
        </mxCell>
        <mxCell id="3DPxSHLYKBOaZ5h03i6D-256" value="" style="rounded=0;whiteSpace=wrap;html=1;strokeColor=default;strokeWidth=0;perimeterSpacing=1;shadow=0;" parent="3DPxSHLYKBOaZ5h03i6D-379" vertex="1">
          <mxGeometry x="5215.5" y="5201" width="20" height="45" as="geometry" />
        </mxCell>
        <mxCell id="3DPxSHLYKBOaZ5h03i6D-257" value="" style="rounded=0;whiteSpace=wrap;html=1;strokeColor=default;strokeWidth=0;perimeterSpacing=1;shadow=0;" parent="3DPxSHLYKBOaZ5h03i6D-379" vertex="1">
          <mxGeometry x="5215.5" y="5291" width="20" height="45" as="geometry" />
        </mxCell>
        <mxCell id="3DPxSHLYKBOaZ5h03i6D-258" value="" style="rounded=0;whiteSpace=wrap;html=1;strokeColor=default;strokeWidth=0;perimeterSpacing=1;shadow=0;" parent="3DPxSHLYKBOaZ5h03i6D-379" vertex="1">
          <mxGeometry x="5215.5" y="5381" width="20" height="45" as="geometry" />
        </mxCell>
        <mxCell id="3DPxSHLYKBOaZ5h03i6D-259" value="" style="rounded=0;whiteSpace=wrap;html=1;strokeColor=default;strokeWidth=0;perimeterSpacing=1;shadow=0;" parent="3DPxSHLYKBOaZ5h03i6D-379" vertex="1">
          <mxGeometry x="5215.5" y="5471" width="20" height="45" as="geometry" />
        </mxCell>
        <mxCell id="3DPxSHLYKBOaZ5h03i6D-260" value="" style="rounded=0;whiteSpace=wrap;html=1;strokeColor=default;strokeWidth=0;perimeterSpacing=1;shadow=0;" parent="3DPxSHLYKBOaZ5h03i6D-379" vertex="1">
          <mxGeometry x="5215.5" y="5561" width="20" height="45" as="geometry" />
        </mxCell>
        <mxCell id="3DPxSHLYKBOaZ5h03i6D-261" value="" style="rounded=0;whiteSpace=wrap;html=1;strokeColor=default;strokeWidth=0;perimeterSpacing=1;shadow=0;" parent="3DPxSHLYKBOaZ5h03i6D-379" vertex="1">
          <mxGeometry x="5215.5" y="5651" width="20" height="45" as="geometry" />
        </mxCell>
        <mxCell id="3DPxSHLYKBOaZ5h03i6D-263" value="" style="rounded=0;whiteSpace=wrap;html=1;strokeColor=default;strokeWidth=0;perimeterSpacing=1;shadow=0;" parent="3DPxSHLYKBOaZ5h03i6D-379" vertex="1">
          <mxGeometry x="5215.5" y="5751" width="20" height="170" as="geometry" />
        </mxCell>
        <mxCell id="3DPxSHLYKBOaZ5h03i6D-268" value="" style="rounded=0;whiteSpace=wrap;html=1;strokeColor=default;strokeWidth=0;perimeterSpacing=1;shadow=0;rotation=90;" parent="3DPxSHLYKBOaZ5h03i6D-379" vertex="1">
          <mxGeometry x="4445.5" y="5811" width="30" height="350" as="geometry" />
        </mxCell>
        <mxCell id="3DPxSHLYKBOaZ5h03i6D-272" value="" style="rounded=0;whiteSpace=wrap;html=1;strokeColor=default;strokeWidth=0;perimeterSpacing=1;shadow=0;rotation=90;" parent="3DPxSHLYKBOaZ5h03i6D-379" vertex="1">
          <mxGeometry x="4445.5" y="5871" width="30" height="350" as="geometry" />
        </mxCell>
        <mxCell id="3DPxSHLYKBOaZ5h03i6D-276" value="" style="rounded=0;whiteSpace=wrap;html=1;strokeColor=default;strokeWidth=0;perimeterSpacing=1;shadow=0;rotation=90;" parent="3DPxSHLYKBOaZ5h03i6D-379" vertex="1">
          <mxGeometry x="4445.5" y="5931" width="30" height="350" as="geometry" />
        </mxCell>
        <mxCell id="3DPxSHLYKBOaZ5h03i6D-277" value="" style="rounded=0;whiteSpace=wrap;html=1;strokeColor=default;strokeWidth=0;perimeterSpacing=1;shadow=0;rotation=90;" parent="3DPxSHLYKBOaZ5h03i6D-379" vertex="1">
          <mxGeometry x="4445.5" y="5991" width="30" height="350" as="geometry" />
        </mxCell>
        <mxCell id="3DPxSHLYKBOaZ5h03i6D-279" value="" style="rounded=0;whiteSpace=wrap;html=1;strokeColor=default;strokeWidth=0;perimeterSpacing=1;shadow=0;rotation=90;" parent="3DPxSHLYKBOaZ5h03i6D-379" vertex="1">
          <mxGeometry x="4445.5" y="6051" width="30" height="350" as="geometry" />
        </mxCell>
        <mxCell id="3DPxSHLYKBOaZ5h03i6D-281" value="" style="rounded=0;whiteSpace=wrap;html=1;strokeColor=default;strokeWidth=0;perimeterSpacing=1;shadow=0;rotation=90;" parent="3DPxSHLYKBOaZ5h03i6D-379" vertex="1">
          <mxGeometry x="4445.5" y="6111" width="30" height="350" as="geometry" />
        </mxCell>
        <mxCell id="3DPxSHLYKBOaZ5h03i6D-284" value="" style="rounded=0;whiteSpace=wrap;html=1;strokeWidth=0;" parent="3DPxSHLYKBOaZ5h03i6D-379" vertex="1">
          <mxGeometry x="4225.5" y="5941" width="30" height="410" as="geometry" />
        </mxCell>
        <mxCell id="3DPxSHLYKBOaZ5h03i6D-287" value="" style="rounded=0;whiteSpace=wrap;html=1;strokeColor=default;strokeWidth=0;perimeterSpacing=1;shadow=0;" parent="3DPxSHLYKBOaZ5h03i6D-379" vertex="1">
          <mxGeometry x="2905.5" y="5661.5" width="450" height="40" as="geometry" />
        </mxCell>
        <mxCell id="3DPxSHLYKBOaZ5h03i6D-289" value="" style="rounded=0;whiteSpace=wrap;html=1;strokeColor=default;strokeWidth=0;perimeterSpacing=1;shadow=0;" parent="3DPxSHLYKBOaZ5h03i6D-379" vertex="1">
          <mxGeometry x="3335.5" y="1021.5" width="450" height="40" as="geometry" />
        </mxCell>
        <mxCell id="3DPxSHLYKBOaZ5h03i6D-298" value="" style="rounded=0;whiteSpace=wrap;html=1;strokeColor=default;strokeWidth=0;perimeterSpacing=1;shadow=0;" parent="3DPxSHLYKBOaZ5h03i6D-379" vertex="1">
          <mxGeometry x="395.5" y="1020.5" width="450" height="40" as="geometry" />
        </mxCell>
        <mxCell id="3DPxSHLYKBOaZ5h03i6D-299" value="" style="rounded=0;whiteSpace=wrap;html=1;strokeWidth=0;" parent="3DPxSHLYKBOaZ5h03i6D-379" vertex="1">
          <mxGeometry x="4675.5" y="5931" width="30" height="420" as="geometry" />
        </mxCell>
        <mxCell id="3DPxSHLYKBOaZ5h03i6D-300" value="" style="rounded=0;whiteSpace=wrap;html=1;strokeColor=#B09500;strokeWidth=0;perimeterSpacing=1;shadow=0;fillColor=#FFFF00;fontColor=#000000;" parent="3DPxSHLYKBOaZ5h03i6D-379" vertex="1">
          <mxGeometry x="5585.5" y="4356" width="20" height="50" as="geometry" />
        </mxCell>
        <mxCell id="3DPxSHLYKBOaZ5h03i6D-301" value="" style="rounded=0;whiteSpace=wrap;html=1;strokeColor=#B09500;strokeWidth=0;perimeterSpacing=1;shadow=0;fillColor=#FFFF00;fontColor=#000000;" parent="3DPxSHLYKBOaZ5h03i6D-379" vertex="1">
          <mxGeometry x="5585.5" y="4451" width="20" height="45" as="geometry" />
        </mxCell>
        <mxCell id="3DPxSHLYKBOaZ5h03i6D-302" value="" style="rounded=0;whiteSpace=wrap;html=1;strokeColor=#B09500;strokeWidth=0;perimeterSpacing=1;shadow=0;fillColor=#FFFF00;fontColor=#000000;" parent="3DPxSHLYKBOaZ5h03i6D-379" vertex="1">
          <mxGeometry x="5585.5" y="4541" width="20" height="45" as="geometry" />
        </mxCell>
        <mxCell id="3DPxSHLYKBOaZ5h03i6D-303" value="" style="rounded=0;whiteSpace=wrap;html=1;strokeColor=#B09500;strokeWidth=0;perimeterSpacing=1;shadow=0;fillColor=#FFFF00;fontColor=#000000;" parent="3DPxSHLYKBOaZ5h03i6D-379" vertex="1">
          <mxGeometry x="5585.5" y="4631" width="20" height="45" as="geometry" />
        </mxCell>
        <mxCell id="3DPxSHLYKBOaZ5h03i6D-305" value="" style="rounded=0;whiteSpace=wrap;html=1;strokeColor=#B09500;strokeWidth=0;perimeterSpacing=1;shadow=0;fillColor=#FFFF00;fontColor=#000000;" parent="3DPxSHLYKBOaZ5h03i6D-379" vertex="1">
          <mxGeometry x="5585.5" y="4721" width="20" height="45" as="geometry" />
        </mxCell>
        <mxCell id="3DPxSHLYKBOaZ5h03i6D-306" value="" style="rounded=0;whiteSpace=wrap;html=1;strokeColor=#B09500;strokeWidth=0;perimeterSpacing=1;shadow=0;fillColor=#FFFF00;fontColor=#000000;" parent="3DPxSHLYKBOaZ5h03i6D-379" vertex="1">
          <mxGeometry x="5585.5" y="4266" width="20" height="45" as="geometry" />
        </mxCell>
        <mxCell id="3DPxSHLYKBOaZ5h03i6D-307" value="" style="rounded=0;whiteSpace=wrap;html=1;strokeColor=#B09500;strokeWidth=0;perimeterSpacing=1;shadow=0;fillColor=#FFFF00;fontColor=#000000;" parent="3DPxSHLYKBOaZ5h03i6D-379" vertex="1">
          <mxGeometry x="5585.5" y="4811" width="20" height="45" as="geometry" />
        </mxCell>
        <mxCell id="3DPxSHLYKBOaZ5h03i6D-308" value="" style="rounded=0;whiteSpace=wrap;html=1;strokeColor=#B09500;strokeWidth=0;perimeterSpacing=1;shadow=0;fillColor=#FFFF00;fontColor=#000000;" parent="3DPxSHLYKBOaZ5h03i6D-379" vertex="1">
          <mxGeometry x="5585.5" y="4901" width="20" height="50" as="geometry" />
        </mxCell>
        <mxCell id="3DPxSHLYKBOaZ5h03i6D-309" value="" style="rounded=0;whiteSpace=wrap;html=1;strokeColor=#B09500;strokeWidth=0;perimeterSpacing=1;shadow=0;fillColor=#FFFF00;fontColor=#000000;" parent="3DPxSHLYKBOaZ5h03i6D-379" vertex="1">
          <mxGeometry x="5585.5" y="4996" width="20" height="45" as="geometry" />
        </mxCell>
        <mxCell id="3DPxSHLYKBOaZ5h03i6D-310" value="" style="rounded=0;whiteSpace=wrap;html=1;strokeColor=#B09500;strokeWidth=0;perimeterSpacing=1;shadow=0;fillColor=#FFFF00;fontColor=#000000;" parent="3DPxSHLYKBOaZ5h03i6D-379" vertex="1">
          <mxGeometry x="5585.5" y="5086" width="20" height="45" as="geometry" />
        </mxCell>
        <mxCell id="3DPxSHLYKBOaZ5h03i6D-311" value="" style="rounded=0;whiteSpace=wrap;html=1;strokeColor=#B09500;strokeWidth=0;perimeterSpacing=1;shadow=0;fillColor=#FFFF00;fontColor=#000000;" parent="3DPxSHLYKBOaZ5h03i6D-379" vertex="1">
          <mxGeometry x="5585.5" y="5176" width="20" height="45" as="geometry" />
        </mxCell>
        <mxCell id="3DPxSHLYKBOaZ5h03i6D-312" value="" style="rounded=0;whiteSpace=wrap;html=1;strokeColor=#B09500;strokeWidth=0;perimeterSpacing=1;shadow=0;fillColor=#FFFF00;fontColor=#000000;" parent="3DPxSHLYKBOaZ5h03i6D-379" vertex="1">
          <mxGeometry x="5585.5" y="5266" width="20" height="45" as="geometry" />
        </mxCell>
        <mxCell id="3DPxSHLYKBOaZ5h03i6D-314" value="" style="rounded=0;whiteSpace=wrap;html=1;strokeColor=#B09500;strokeWidth=0;perimeterSpacing=1;shadow=0;fillColor=#FFFF00;fontColor=#000000;" parent="3DPxSHLYKBOaZ5h03i6D-379" vertex="1">
          <mxGeometry x="5585.5" y="5356" width="20" height="45" as="geometry" />
        </mxCell>
        <mxCell id="3DPxSHLYKBOaZ5h03i6D-315" value="" style="rounded=0;whiteSpace=wrap;html=1;strokeColor=#B09500;strokeWidth=0;perimeterSpacing=1;shadow=0;fillColor=#FFFF00;fontColor=#000000;" parent="3DPxSHLYKBOaZ5h03i6D-379" vertex="1">
          <mxGeometry x="5585.5" y="5446" width="20" height="50" as="geometry" />
        </mxCell>
        <mxCell id="3DPxSHLYKBOaZ5h03i6D-316" value="" style="rounded=0;whiteSpace=wrap;html=1;strokeColor=#B09500;strokeWidth=0;perimeterSpacing=1;shadow=0;fillColor=#FFFF00;fontColor=#000000;" parent="3DPxSHLYKBOaZ5h03i6D-379" vertex="1">
          <mxGeometry x="5585.5" y="5541" width="20" height="45" as="geometry" />
        </mxCell>
        <mxCell id="3DPxSHLYKBOaZ5h03i6D-317" value="" style="rounded=0;whiteSpace=wrap;html=1;strokeColor=#B09500;strokeWidth=0;perimeterSpacing=1;shadow=0;fillColor=#FFFF00;fontColor=#000000;" parent="3DPxSHLYKBOaZ5h03i6D-379" vertex="1">
          <mxGeometry x="5585.5" y="5631" width="20" height="45" as="geometry" />
        </mxCell>
        <mxCell id="3DPxSHLYKBOaZ5h03i6D-318" value="" style="rounded=0;whiteSpace=wrap;html=1;strokeColor=#B09500;strokeWidth=0;perimeterSpacing=1;shadow=0;fillColor=#FFFF00;fontColor=#000000;" parent="3DPxSHLYKBOaZ5h03i6D-379" vertex="1">
          <mxGeometry x="5585.5" y="5721" width="20" height="45" as="geometry" />
        </mxCell>
        <mxCell id="3DPxSHLYKBOaZ5h03i6D-319" value="" style="rounded=0;whiteSpace=wrap;html=1;strokeColor=#B09500;strokeWidth=0;perimeterSpacing=1;shadow=0;fillColor=#FFFF00;fontColor=#000000;" parent="3DPxSHLYKBOaZ5h03i6D-379" vertex="1">
          <mxGeometry x="5585.5" y="5811" width="20" height="45" as="geometry" />
        </mxCell>
        <mxCell id="3DPxSHLYKBOaZ5h03i6D-329" value="" style="rounded=0;whiteSpace=wrap;html=1;strokeColor=default;strokeWidth=0;perimeterSpacing=1;shadow=0;fillColor=#FFFF00;" parent="3DPxSHLYKBOaZ5h03i6D-379" vertex="1">
          <mxGeometry x="5585.5" y="566" width="20" height="50" as="geometry" />
        </mxCell>
        <mxCell id="3DPxSHLYKBOaZ5h03i6D-330" value="" style="rounded=0;whiteSpace=wrap;html=1;strokeColor=default;strokeWidth=0;perimeterSpacing=1;shadow=0;fillColor=#FFFF00;" parent="3DPxSHLYKBOaZ5h03i6D-379" vertex="1">
          <mxGeometry x="5585.5" y="661" width="20" height="45" as="geometry" />
        </mxCell>
        <mxCell id="3DPxSHLYKBOaZ5h03i6D-331" value="" style="rounded=0;whiteSpace=wrap;html=1;strokeColor=default;strokeWidth=0;perimeterSpacing=1;shadow=0;fillColor=#FFFF00;" parent="3DPxSHLYKBOaZ5h03i6D-379" vertex="1">
          <mxGeometry x="5585.5" y="751" width="20" height="45" as="geometry" />
        </mxCell>
        <mxCell id="3DPxSHLYKBOaZ5h03i6D-332" value="" style="rounded=0;whiteSpace=wrap;html=1;strokeColor=default;strokeWidth=0;perimeterSpacing=1;shadow=0;fillColor=#FFFF00;" parent="3DPxSHLYKBOaZ5h03i6D-379" vertex="1">
          <mxGeometry x="5585.5" y="841" width="20" height="45" as="geometry" />
        </mxCell>
        <mxCell id="3DPxSHLYKBOaZ5h03i6D-333" value="" style="rounded=0;whiteSpace=wrap;html=1;strokeColor=default;strokeWidth=0;perimeterSpacing=1;shadow=0;fillColor=#FFFF00;" parent="3DPxSHLYKBOaZ5h03i6D-379" vertex="1">
          <mxGeometry x="5585.5" y="931" width="20" height="45" as="geometry" />
        </mxCell>
        <mxCell id="3DPxSHLYKBOaZ5h03i6D-334" value="" style="rounded=0;whiteSpace=wrap;html=1;strokeColor=default;strokeWidth=0;perimeterSpacing=1;shadow=0;fillColor=#FFFF00;" parent="3DPxSHLYKBOaZ5h03i6D-379" vertex="1">
          <mxGeometry x="5585.5" y="1021" width="20" height="45" as="geometry" />
        </mxCell>
        <mxCell id="3DPxSHLYKBOaZ5h03i6D-335" value="" style="rounded=0;whiteSpace=wrap;html=1;strokeColor=default;strokeWidth=0;perimeterSpacing=1;shadow=0;fillColor=#FFFF00;" parent="3DPxSHLYKBOaZ5h03i6D-379" vertex="1">
          <mxGeometry x="5585.5" y="1111" width="20" height="50" as="geometry" />
        </mxCell>
        <mxCell id="3DPxSHLYKBOaZ5h03i6D-336" value="" style="rounded=0;whiteSpace=wrap;html=1;strokeColor=default;strokeWidth=0;perimeterSpacing=1;shadow=0;fillColor=#FFFF00;" parent="3DPxSHLYKBOaZ5h03i6D-379" vertex="1">
          <mxGeometry x="5585.5" y="1206" width="20" height="45" as="geometry" />
        </mxCell>
        <mxCell id="3DPxSHLYKBOaZ5h03i6D-337" value="" style="rounded=0;whiteSpace=wrap;html=1;strokeColor=default;strokeWidth=0;perimeterSpacing=1;shadow=0;fillColor=#FFFF00;" parent="3DPxSHLYKBOaZ5h03i6D-379" vertex="1">
          <mxGeometry x="5585.5" y="1296" width="20" height="45" as="geometry" />
        </mxCell>
        <mxCell id="3DPxSHLYKBOaZ5h03i6D-338" value="" style="rounded=0;whiteSpace=wrap;html=1;strokeColor=default;strokeWidth=0;perimeterSpacing=1;shadow=0;fillColor=#FFFF00;" parent="3DPxSHLYKBOaZ5h03i6D-379" vertex="1">
          <mxGeometry x="5585.5" y="1386" width="20" height="45" as="geometry" />
        </mxCell>
        <mxCell id="3DPxSHLYKBOaZ5h03i6D-341" value="" style="rounded=0;whiteSpace=wrap;html=1;strokeColor=default;strokeWidth=0;perimeterSpacing=1;shadow=0;fillColor=#FFFF00;" parent="3DPxSHLYKBOaZ5h03i6D-379" vertex="1">
          <mxGeometry x="5585.5" y="481" width="20" height="50" as="geometry" />
        </mxCell>
        <mxCell id="3DPxSHLYKBOaZ5h03i6D-343" value="" style="rounded=0;whiteSpace=wrap;html=1;strokeColor=default;strokeWidth=0;perimeterSpacing=1;shadow=0;fillColor=#FFFF00;" parent="3DPxSHLYKBOaZ5h03i6D-379" vertex="1">
          <mxGeometry x="5560.5" y="411" width="45" height="20" as="geometry" />
        </mxCell>
        <mxCell id="3DPxSHLYKBOaZ5h03i6D-348" value="" style="rounded=0;whiteSpace=wrap;html=1;strokeColor=default;strokeWidth=0;perimeterSpacing=1;shadow=0;fillColor=#FFFF00;" parent="3DPxSHLYKBOaZ5h03i6D-379" vertex="1">
          <mxGeometry x="5585.5" y="1476" width="20" height="45" as="geometry" />
        </mxCell>
        <mxCell id="3DPxSHLYKBOaZ5h03i6D-349" value="" style="rounded=0;whiteSpace=wrap;html=1;strokeColor=default;strokeWidth=0;perimeterSpacing=1;shadow=0;fillColor=#FFFF00;" parent="3DPxSHLYKBOaZ5h03i6D-379" vertex="1">
          <mxGeometry x="5585.5" y="1566" width="20" height="45" as="geometry" />
        </mxCell>
        <mxCell id="3DPxSHLYKBOaZ5h03i6D-350" value="" style="rounded=0;whiteSpace=wrap;html=1;strokeColor=default;strokeWidth=0;perimeterSpacing=1;shadow=0;fillColor=#FFFF00;" parent="3DPxSHLYKBOaZ5h03i6D-379" vertex="1">
          <mxGeometry x="5585.5" y="1656" width="20" height="45" as="geometry" />
        </mxCell>
        <mxCell id="3DPxSHLYKBOaZ5h03i6D-351" value="" style="rounded=0;whiteSpace=wrap;html=1;strokeColor=default;strokeWidth=0;perimeterSpacing=1;shadow=0;fillColor=#FFFF00;" parent="3DPxSHLYKBOaZ5h03i6D-379" vertex="1">
          <mxGeometry x="5585.5" y="1746" width="20" height="45" as="geometry" />
        </mxCell>
        <mxCell id="3DPxSHLYKBOaZ5h03i6D-352" value="" style="rounded=0;whiteSpace=wrap;html=1;strokeColor=default;strokeWidth=0;perimeterSpacing=1;shadow=0;fillColor=#FFFF00;" parent="3DPxSHLYKBOaZ5h03i6D-379" vertex="1">
          <mxGeometry x="5585.5" y="1836" width="20" height="45" as="geometry" />
        </mxCell>
        <mxCell id="3DPxSHLYKBOaZ5h03i6D-358" value="" style="rounded=0;whiteSpace=wrap;html=1;strokeColor=default;strokeWidth=0;perimeterSpacing=1;shadow=0;" parent="3DPxSHLYKBOaZ5h03i6D-379" vertex="1">
          <mxGeometry x="4805.5" y="2981" width="40" height="760" as="geometry" />
        </mxCell>
        <mxCell id="3DPxSHLYKBOaZ5h03i6D-362" value="" style="rounded=0;whiteSpace=wrap;html=1;strokeColor=default;strokeWidth=0;perimeterSpacing=1;shadow=0;fillColor=#FFFF00;" parent="3DPxSHLYKBOaZ5h03i6D-379" vertex="1">
          <mxGeometry x="453.5" y="411" width="45" height="20" as="geometry" />
        </mxCell>
        <mxCell id="3DPxSHLYKBOaZ5h03i6D-363" value="" style="rounded=0;whiteSpace=wrap;html=1;strokeColor=default;strokeWidth=0;perimeterSpacing=1;shadow=0;fillColor=#FFFF00;" parent="3DPxSHLYKBOaZ5h03i6D-379" vertex="1">
          <mxGeometry x="543.5" y="411" width="45" height="20" as="geometry" />
        </mxCell>
      </root>
    </mxGraphModel>
  </diagram>
</mxfile>
